<svg width="220" height="220" viewBox="0 0 220 220" fill="none" xmlns="http://www.w3.org/2000/svg">
<path fill-rule="evenodd" clip-rule="evenodd" d="M220 110C220 170.751 170.751 220 110 220C49.2487 220 0 170.751 0 110C0 49.2487 49.2487 0 110 0C170.751 0 220 49.2487 220 110ZM110 38C124.24 38 138.161 42.2227 150.001 50.1342C153.977 52.7905 157.658 55.8226 161 59.1767V38H182V109.932C182 109.978 182 110.023 182 110.069V182H161V160.823C160.971 160.853 160.941 160.882 160.912 160.912C150.842 170.981 138.013 177.838 124.047 180.617C110.08 183.395 95.6031 181.969 82.4468 176.519C69.2905 171.07 58.0456 161.841 50.1342 150.001C42.2227 138.161 38 124.24 38 110H59.4873C59.4873 119.99 62.4498 129.757 68.0002 138.063C73.5507 146.37 81.4397 152.844 90.6696 156.668C99.8996 160.491 110.056 161.491 119.855 159.542C129.653 157.593 138.654 152.782 145.718 145.718C152.782 138.654 157.593 129.653 159.542 119.855C161.491 110.056 160.491 99.8996 156.668 90.6696C152.844 81.4397 146.37 73.5507 138.063 68.0003C129.757 62.4498 119.99 59.4873 110 59.4873V38ZM78 38H60V60H38V78H60V102H78V78H102V60H78V38Z" fill="white"/>
</svg>
