<svg width="144" height="144" viewBox="0 0 144 144" fill="none" xmlns="http://www.w3.org/2000/svg">
<path d="M72 0C86.2403 1.69813e-07 100.161 4.22273 112.001 12.1342C123.841 20.0457 133.07 31.2905 138.519 44.4468C143.969 57.6031 145.395 72.0799 142.617 86.0465C139.838 100.013 132.981 112.842 122.912 122.912C112.842 132.981 100.013 139.838 86.0465 142.617C72.0799 145.395 57.6031 143.969 44.4468 138.519C31.2905 133.07 20.0456 123.841 12.1342 112.001C4.22273 100.161 -3.39627e-07 86.2403 0 72L21.4873 72C21.4873 81.9905 24.4498 91.7566 30.0002 100.063C35.5507 108.37 43.4397 114.844 52.6696 118.668C61.8996 122.491 72.056 123.491 81.8545 121.542C91.653 119.593 100.654 114.782 107.718 107.718C114.782 100.654 119.593 91.653 121.542 81.8545C123.491 72.056 122.491 61.8996 118.668 52.6696C114.844 43.4397 108.37 35.5507 100.063 30.0002C91.7566 24.4498 81.9905 21.4873 72 21.4873L72 0Z" fill="#D9D9D9"/>
<rect x="22" width="18" height="64" fill="#D9D9D9"/>
<rect y="40" width="18" height="64" transform="rotate(-90 0 40)" fill="#D9D9D9"/>
<rect x="123" width="21" height="144" fill="#D9D9D9"/>
</svg>
