<svg width="94" height="94" viewBox="0 0 94 94" fill="none" xmlns="http://www.w3.org/2000/svg">
<path opacity="0.45" d="M48.6783 94C35.768 94 23.3865 88.8714 14.2575 79.7425C5.12859 70.6135 0 58.232 0 45.3217C0 25.5986 11.3303 7.91494 28.8734 0.279583C29.4916 0.0101213 30.1768 -0.0668668 30.8394 0.0586517C31.5021 0.18417 32.1116 0.506375 32.5885 0.983281C33.0654 1.46019 33.3876 2.06968 33.5131 2.73235C33.6386 3.39501 33.5616 4.08012 33.2922 4.6984C31.2779 9.32284 30.2141 15.2461 30.2141 21.8218C30.2141 44.9608 49.0392 63.7859 72.1782 63.7859C78.7539 63.7859 84.6772 62.7221 89.3016 60.7078C89.9199 60.4384 90.605 60.3614 91.2676 60.4869C91.9303 60.6124 92.5398 60.9346 93.0167 61.4115C93.4936 61.8884 93.8158 62.4979 93.9413 63.1606C94.0669 63.8232 93.9899 64.5084 93.7204 65.1266C86.0851 82.6697 68.4014 94 48.6783 94Z" fill="white"/>
</svg>
