<svg width="106" height="106" viewBox="0 0 106 106" fill="none" xmlns="http://www.w3.org/2000/svg">
<g opacity="0.45" clip-path="url(#clip0_26_69)">
<path d="M53 81.1562C68.5503 81.1562 81.1562 68.5503 81.1562 53C81.1562 37.4497 68.5503 24.8438 53 24.8438C37.4497 24.8438 24.8438 37.4497 24.8438 53C24.8438 68.5503 37.4497 81.1562 53 81.1562Z" fill="white"/>
<path d="M53 18.2188C53.8785 18.2188 54.7211 17.8698 55.3423 17.2485C55.9635 16.6273 56.3125 15.7848 56.3125 14.9062V6.625C56.3125 5.74647 55.9635 4.90392 55.3423 4.28271C54.7211 3.66149 53.8785 3.3125 53 3.3125C52.1215 3.3125 51.2789 3.66149 50.6577 4.28271C50.0365 4.90392 49.6875 5.74647 49.6875 6.625V14.9062C49.6875 15.7848 50.0365 16.6273 50.6577 17.2485C51.2789 17.8698 52.1215 18.2188 53 18.2188Z" fill="white"/>
<path d="M23.7258 28.4049C24.352 29.0144 25.1914 29.3555 26.0653 29.3555C26.9392 29.3555 27.7785 29.0144 28.4047 28.4049C29.0242 27.7839 29.3721 26.9425 29.3721 26.0654C29.3721 25.1883 29.0242 24.3469 28.4047 23.7259L22.5665 17.8463C22.2694 17.4844 21.9 17.1887 21.4818 16.9782C21.0636 16.7677 20.606 16.6471 20.1384 16.6242C19.6708 16.6012 19.2036 16.6764 18.7668 16.8449C18.33 17.0134 17.9334 17.2714 17.6023 17.6025C17.2713 17.9335 17.0132 18.3302 16.8447 18.7669C16.6762 19.2037 16.6011 19.671 16.624 20.1385C16.647 20.6061 16.7676 21.0637 16.9781 21.4819C17.1886 21.9001 17.4843 22.2696 17.8461 22.5666L23.7258 28.4049Z" fill="white"/>
<path d="M18.2188 53C18.2188 52.1215 17.8698 51.2789 17.2485 50.6577C16.6273 50.0365 15.7848 49.6875 14.9062 49.6875H6.625C5.74647 49.6875 4.90392 50.0365 4.28271 50.6577C3.66149 51.2789 3.3125 52.1215 3.3125 53C3.3125 53.8785 3.66149 54.7211 4.28271 55.3423C4.90392 55.9635 5.74647 56.3125 6.625 56.3125H14.9062C15.7848 56.3125 16.6273 55.9635 17.2485 55.3423C17.8698 54.7211 18.2188 53.8785 18.2188 53Z" fill="white"/>
<path d="M23.7258 77.5951L17.8461 83.4334C17.2241 84.0614 16.8751 84.9096 16.8751 85.7935C16.8751 86.6775 17.2241 87.5256 17.8461 88.1537C18.4865 88.7544 19.3283 89.0941 20.2063 89.106C21.0859 89.1023 21.9306 88.7615 22.5664 88.1537L28.4047 82.274C28.9756 81.6439 29.2824 80.8183 29.2615 79.9683C29.2405 79.1182 28.8935 78.3088 28.2923 77.7075C27.691 77.1063 26.8816 76.7592 26.0315 76.7383C25.1815 76.7174 24.3559 77.0241 23.7258 77.5951Z" fill="white"/>
<path d="M53 87.7812C52.1215 87.7812 51.2789 88.1302 50.6577 88.7515C50.0365 89.3727 49.6875 90.2152 49.6875 91.0938V99.375C49.6875 100.254 50.0365 101.096 50.6577 101.717C51.2789 102.339 52.1215 102.688 53 102.688C53.8785 102.688 54.7211 102.339 55.3423 101.717C55.9635 101.096 56.3125 100.254 56.3125 99.375V91.0938C56.3125 90.2152 55.9635 89.3727 55.3423 88.7515C54.7211 88.1302 53.8785 87.7812 53 87.7812Z" fill="white"/>
<path d="M82.2742 77.5951C81.6441 77.0241 80.8186 76.7174 79.9685 76.7383C79.1185 76.7592 78.309 77.1063 77.7078 77.7075C77.1065 78.3088 76.7595 79.1182 76.7386 79.9683C76.7176 80.8183 77.0244 81.6439 77.5953 82.274L83.4336 88.1537C84.0695 88.7615 84.9142 89.1023 85.7938 89.106C86.6717 89.0941 87.5135 88.7544 88.1539 88.1537C88.7759 87.5256 89.1249 86.6775 89.1249 85.7935C89.1249 84.9096 88.7759 84.0614 88.1539 83.4334L82.2742 77.5951Z" fill="white"/>
<path d="M99.375 49.6875H91.0938C90.2152 49.6875 89.3727 50.0365 88.7515 50.6577C88.1302 51.2789 87.7812 52.1215 87.7812 53C87.7812 53.8785 88.1302 54.7211 88.7515 55.3423C89.3727 55.9635 90.2152 56.3125 91.0938 56.3125H99.375C100.254 56.3125 101.096 55.9635 101.717 55.3423C102.339 54.7211 102.688 53.8785 102.688 53C102.688 52.1215 102.339 51.2789 101.717 50.6577C101.096 50.0365 100.254 49.6875 99.375 49.6875Z" fill="white"/>
<path d="M79.9555 29.3573C80.3859 29.3611 80.8128 29.2788 81.211 29.1152C81.6092 28.9517 81.9707 28.7102 82.2742 28.4049L88.1539 22.5666C88.6821 21.923 88.9521 21.106 88.9112 20.2743C88.8704 19.4427 88.5217 18.656 87.9329 18.0673C87.3442 17.4786 86.5575 17.1298 85.7259 17.089C84.8943 17.0482 84.0772 17.3181 83.4336 17.8463L77.5953 23.726C76.9758 24.347 76.6279 25.1883 76.6279 26.0655C76.6279 26.9426 76.9758 27.7839 77.5953 28.4049C77.9037 28.7152 78.2719 28.9597 78.6776 29.1234C79.0833 29.2871 79.5181 29.3666 79.9555 29.3573Z" fill="white"/>
</g>
<defs>
<clipPath id="clip0_26_69">
<rect width="106" height="106" fill="white"/>
</clipPath>
</defs>
</svg>
