<svg width="60" height="60" viewBox="0 0 60 60" fill="none" xmlns="http://www.w3.org/2000/svg">
<path d="M28.74 44.97C28.85 44.88 29.03 44.73 29.26 44.55C29.03 44.37 28.85 44.22 28.74 44.13C26.71 42.49 26.17 39.82 27.42 37.65L30.47 32.37C31.16 31.17 32.26 30.39 33.51 30.07C30.74 29.17 27.73 28.68 24.59 28.68C10.97 28.68 -0.169998 37.93 -0.169998 49.24V56.44H30.32L27.43 51.44C26.17 49.27 26.71 46.61 28.74 44.97Z" fill="white"/>
<path d="M24.59 25.14C31.4273 25.14 36.97 19.5973 36.97 12.76C36.97 5.92271 31.4273 0.379999 24.59 0.379999C17.7527 0.379999 12.21 5.92271 12.21 12.76C12.21 19.5973 17.7527 25.14 24.59 25.14Z" fill="white"/>
<path d="M59.67 48.08C59.28 47.76 57.86 46.64 57.28 46.18C57.35 45.65 57.39 45.11 57.39 44.55C57.39 44 57.35 43.46 57.28 42.92C57.86 42.46 59.28 41.33 59.67 41.02C60.17 40.62 60.31 40.13 60.04 39.65L58.51 37.01L56.98 34.37C56.7 33.89 56.21 33.77 55.61 34C55.14 34.18 53.46 34.85 52.77 35.12C51.92 34.46 50.97 33.91 49.96 33.49C49.85 32.75 49.59 30.97 49.51 30.47C49.41 29.84 49.06 29.47 48.51 29.47H45.46H42.41C41.86 29.47 41.51 29.84 41.41 30.47C41.33 30.97 41.07 32.75 40.96 33.49C39.94 33.9 39 34.45 38.15 35.12C37.46 34.85 35.77 34.18 35.31 34C34.72 33.77 34.22 33.89 33.94 34.37L32.41 37.01L30.88 39.65C30.6 40.13 30.75 40.62 31.25 41.02C31.64 41.34 33.06 42.46 33.64 42.92C33.57 43.45 33.53 43.99 33.53 44.55C33.53 45.1 33.57 45.64 33.64 46.18C33.06 46.64 31.64 47.77 31.25 48.08C30.75 48.48 30.61 48.97 30.88 49.45L32.41 52.09L33.94 54.73C34.22 55.21 34.71 55.33 35.31 55.1C35.78 54.92 37.46 54.25 38.15 53.98C39 54.64 39.95 55.19 40.96 55.61C41.07 56.35 41.33 58.13 41.41 58.63C41.51 59.26 41.86 59.63 42.41 59.63H45.46H48.51C49.06 59.63 49.41 59.26 49.51 58.63C49.59 58.13 49.85 56.35 49.96 55.61C50.98 55.2 51.92 54.65 52.77 53.98C53.46 54.25 55.15 54.92 55.61 55.1C56.2 55.33 56.7 55.21 56.98 54.73L58.51 52.09L60.04 49.45C60.32 48.97 60.17 48.48 59.67 48.08ZM45.46 51.27C41.75 51.27 38.74 48.26 38.74 44.55C38.74 40.84 41.75 37.83 45.46 37.83C49.17 37.83 52.18 40.84 52.18 44.55C52.19 48.26 49.18 51.27 45.46 51.27Z" fill="white"/>
</svg>
