<svg width="800" height="800" viewBox="0 0 800 800" fill="none" xmlns="http://www.w3.org/2000/svg" opacity="0.5">
<path d="M728.867 307.3C709.203 286.725 698.179 259.393 698.067 230.933C697.166 197.01 683.29 164.724 659.298 140.726C635.305 116.727 603.023 102.843 569.1 101.933C540.641 101.817 513.31 90.794 492.733 71.1334C467.581 47.6303 434.441 34.5566 400.017 34.5566C365.592 34.5566 332.452 47.6303 307.3 71.1334C286.716 90.7823 259.39 101.804 230.933 101.933C197.005 102.835 164.714 116.715 140.714 140.714C116.715 164.714 102.834 197.005 101.933 230.933C101.822 259.4 90.7844 286.736 71.0999 307.3C46.8761 332.076 33.3127 365.35 33.3127 400C33.3127 434.65 46.8761 467.924 71.0999 492.7C90.7634 513.275 101.787 540.607 101.9 569.067C102.801 602.99 116.676 635.276 140.669 659.274C164.662 683.273 196.944 697.157 230.867 698.067C259.326 698.183 286.657 709.206 307.233 728.867C332.011 753.1 365.292 766.67 399.95 766.67C434.608 766.67 467.889 753.1 492.667 728.867C513.25 709.218 540.577 698.196 569.033 698.067C602.962 697.165 635.252 683.285 659.252 659.286C683.252 635.286 697.132 602.995 698.033 569.067C698.145 540.6 709.182 513.264 728.867 492.7C753.075 467.916 766.627 434.645 766.627 400C766.627 365.355 753.075 332.084 728.867 307.3ZM681.233 446.1C649.68 478.616 631.848 522.026 631.433 567.333C630.962 584.187 624.052 600.221 612.123 612.137C600.195 624.053 584.154 630.946 567.3 631.4C521.976 631.923 478.581 649.82 446.067 681.4C433.557 693.067 417.089 699.554 399.983 699.554C382.878 699.554 366.409 693.067 353.9 681.4C321.4 649.797 277.996 631.895 232.667 631.4C215.818 630.938 199.786 624.041 187.864 612.125C175.943 600.21 169.037 584.182 168.567 567.333C168.134 522.036 150.318 478.636 118.8 446.1C106.759 433.776 100.018 417.23 100.018 400C100.018 382.77 106.759 366.224 118.8 353.9C150.341 321.379 168.161 277.969 168.567 232.667C169.038 215.813 175.948 199.779 187.877 187.863C199.805 175.947 215.845 169.054 232.7 168.6C278.001 168.122 321.392 150.286 353.933 118.767C366.256 106.736 382.795 100.001 400.017 100.001C417.238 100.001 433.777 106.736 446.1 118.767C478.626 150.309 522.027 168.149 567.333 168.6C584.182 169.062 600.214 175.959 612.135 187.875C624.057 199.79 630.962 215.818 631.433 232.667C631.866 277.964 649.682 321.364 681.2 353.9C693.241 366.224 699.982 382.77 699.982 400C699.982 417.23 693.274 433.776 681.233 446.1ZM400 233.333C367.036 233.333 334.813 243.108 307.405 261.422C279.997 279.735 258.635 305.765 246.02 336.219C233.405 366.674 230.105 400.185 236.536 432.515C242.967 464.845 258.84 494.542 282.149 517.851C305.458 541.16 335.155 557.033 367.485 563.464C399.815 569.895 433.326 566.595 463.78 553.98C494.235 541.365 520.265 520.003 538.578 492.595C556.892 465.187 566.667 432.964 566.667 400C566.614 355.814 549.037 313.452 517.793 282.207C486.548 250.963 444.186 233.386 400 233.333ZM400 500C380.222 500 360.888 494.135 344.443 483.147C327.998 472.159 315.181 456.541 307.612 438.268C300.043 419.996 298.063 399.889 301.921 380.491C305.78 361.093 315.304 343.275 329.289 329.289C343.274 315.304 361.093 305.78 380.491 301.921C399.889 298.063 419.996 300.043 438.268 307.612C456.541 315.181 472.159 327.998 483.147 344.443C494.135 360.888 500 380.222 500 400C500 426.522 489.464 451.957 470.711 470.711C451.957 489.464 426.522 500 400 500Z" fill="white"/>
<path d="M715.166 407.448C711.128 578.057 567.203 713.033 393.702 708.925C220.201 704.818 82.8243 563.184 86.8628 392.576C90.9014 221.967 234.826 86.9915 408.327 91.0986C581.828 95.2056 719.205 236.84 715.166 407.448ZM236.269 396.112C234.151 485.582 306.193 559.857 397.18 562.011C488.166 564.164 563.642 493.381 565.76 403.912C567.878 314.442 495.836 240.167 404.849 238.013C313.863 235.86 238.387 306.643 236.269 396.112Z"/>
</svg>
