<svg width="291" height="211" viewBox="0 0 291 211" fill="currentColor" xmlns="http://www.w3.org/2000/svg">
<path fill-rule="evenodd" clip-rule="evenodd" d="M0 20C0 8.9543 8.9543 0 20 0H271C282.046 0 291 8.95431 291 20V191C291 202.046 282.046 211 271 211H20C8.9543 211 0 202.046 0 191V20ZM146 33C160.24 33 174.161 37.2227 186.001 45.1342C189.977 47.7905 193.658 50.8226 197 54.1767V33H218V104.932C218 104.978 218 105.023 218 105.069V177H197V155.823C196.971 155.853 196.941 155.882 196.912 155.912C186.842 165.981 174.013 172.838 160.047 175.617C146.08 178.395 131.603 176.969 118.447 171.519C105.291 166.07 94.0456 156.841 86.1342 145.001C78.2227 133.161 74 119.24 74 105H95.4873C95.4873 114.99 98.4498 124.757 104 133.063C109.551 141.37 117.44 147.844 126.67 151.668C135.9 155.491 146.056 156.491 155.855 154.542C165.653 152.593 174.654 147.782 181.718 140.718C188.782 133.654 193.593 124.653 195.542 114.855C197.491 105.056 196.491 94.8996 192.668 85.6696C188.844 76.4397 182.37 68.5507 174.063 63.0002C165.757 57.4498 155.99 54.4873 146 54.4873V33ZM114 33H96V55H74V73H96V97H114V73H138V55H114V33Z"/>
</svg>
