<svg width="248" height="231" viewBox="0 0 248 231" fill="currentColor" xmlns="http://www.w3.org/2000/svg">
<path fill-rule="evenodd" clip-rule="evenodd" d="M100.5 201C156.005 201 201 156.005 201 100.5C201 44.9954 156.005 0 100.5 0C44.9954 0 0 44.9954 0 100.5C0 156.005 44.9954 201 100.5 201ZM100.5 174C141.093 174 174 141.093 174 100.5C174 59.9071 141.093 27 100.5 27C59.9071 27 27 59.9071 27 100.5C27 141.093 59.9071 174 100.5 174Z" />
<path d="M165.152 174.336C158.993 168.795 158.491 159.311 164.031 153.152V153.152C169.572 146.993 179.056 146.491 185.215 152.031L237.258 198.845C243.417 204.385 243.919 213.87 238.379 220.029V220.029C232.839 226.188 223.354 226.69 217.195 221.149L165.152 174.336Z" />
<path d="M72.32 80.024V68.12H83.84V80.024H72.32ZM114.848 80.024V68.12H126.272V80.024H114.848ZM76.16 94.9745C73.536 101.311 72.224 107.167 72.224 112.543C72.224 116.831 73.184 120.287 75.104 122.911C77.216 125.919 80.32 127.423 84.416 127.423C92.096 127.423 95.936 122.047 95.936 111.295V104.191H105.536V107.071C105.536 113.023 106.112 117.503 107.264 120.511C109.056 124.927 112.448 127.135 117.44 127.135C118.72 127.135 119.904 126.783 120.992 126.079C122.08 125.439 123.008 124.543 123.776 123.391C124.544 122.239 125.152 120.863 125.6 119.263C126.048 117.727 126.272 116.063 126.272 114.271C126.272 109.535 124.896 104.191 122.144 98.2385L132.512 97.2785C134.752 103.231 135.872 109.087 135.872 114.847C135.872 121.183 134.592 126.303 132.032 130.207C128.896 135.071 124.16 137.503 117.824 137.503C110.272 137.503 104.672 133.823 101.024 126.463C98.208 133.951 92.48 137.695 83.84 137.695C77.248 137.695 72 135.167 68.096 130.111C64.576 125.439 62.816 119.455 62.816 112.159C62.816 104.735 63.808 98.6225 65.792 93.8225L76.16 94.9745Z" />
</svg>
