<svg width="248" height="231" viewBox="0 0 248 231" fill="currentColor" xmlns="http://www.w3.org/2000/svg">
<path fill-rule="evenodd" clip-rule="evenodd" d="M100.5 201C156.005 201 201 156.005 201 100.5C201 44.9954 156.005 0 100.5 0C44.9954 0 0 44.9954 0 100.5C0 156.005 44.9954 201 100.5 201ZM100.5 174C141.093 174 174 141.093 174 100.5C174 59.9071 141.093 27 100.5 27C59.9071 27 27 59.9071 27 100.5C27 141.093 59.9071 174 100.5 174Z"/>
<path d="M165.152 174.336C158.993 168.795 158.491 159.311 164.031 153.152V153.152C169.572 146.993 179.056 146.491 185.215 152.031L237.258 198.845C243.417 204.385 243.919 213.87 238.379 220.029V220.029C232.839 226.188 223.354 226.69 217.195 221.149L165.152 174.336Z"/>
</svg>
